<svg width="48" height="48" viewBox="0 0 48 48" fill="none" xmlns="http://www.w3.org/2000/svg">
<path fill-rule="evenodd" clip-rule="evenodd" d="M21.502 3.67287C22.2616 3.23478 23.1231 3.00415 24 3.00415C24.8769 3.00415 25.7383 3.23476 26.4979 3.67281C26.4986 3.67322 26.4993 3.67362 26.5 3.67402L40.5 11.674C41.2593 12.1124 41.89 12.7428 42.3288 13.5019C42.7676 14.261 42.9991 15.1222 43 15.999V32.0011C42.9991 32.8779 42.7676 33.739 42.3288 34.4982C41.89 35.2573 41.2593 35.8877 40.5 36.3261L40.4961 36.3283L26.5 44.3261C26.4991 44.3266 26.4983 44.3271 26.4974 44.3275C25.738 44.7654 24.8767 44.9959 24 44.9959C23.1233 44.9959 22.2619 44.7654 21.5025 44.3275C21.5016 44.327 21.5008 44.3265 21.5 44.3261L7.50386 36.3283L7.5 36.3261C6.74066 35.8877 6.10995 35.2573 5.67115 34.4982C5.23236 33.739 5.0009 32.8779 5 32.0011V15.999C5.0009 15.1222 5.23236 14.261 5.67115 13.5019C6.10995 12.7428 6.74066 12.1124 7.5 11.674L7.50386 11.6718L21.5 3.67402C21.5007 3.67364 21.5013 3.67326 21.502 3.67287ZM24 5.00415C23.4734 5.00415 22.9561 5.14277 22.5 5.40607L22.4961 5.40829L8.5 13.4061C8.49941 13.4064 8.49882 13.4068 8.49823 13.4071C8.04341 13.6701 7.66563 14.0479 7.40269 14.5028C7.13949 14.9581 7.00062 15.4747 7 16.0006V31.9995C7.00062 32.5254 7.13949 33.0419 7.40269 33.4973C7.66565 33.9522 8.04349 34.3301 8.49837 34.5931C8.49891 34.5934 8.49945 34.5937 8.5 34.594L22.5 42.594C22.9561 42.8573 23.4734 42.9959 24 42.9959C24.5266 42.9959 25.0439 42.8573 25.5 42.594L25.5039 42.5918L39.5 34.594C39.5005 34.5937 39.5011 34.5934 39.5016 34.5931C39.9565 34.3301 40.3343 33.9522 40.5973 33.4973C40.8606 33.0418 40.9995 32.5251 41 31.999V16.0011C40.9995 15.475 40.8606 14.9583 40.5973 14.5028C40.3344 14.0479 39.9566 13.6701 39.5018 13.4071C39.5012 13.4068 39.5006 13.4064 39.5 13.4061L25.5039 5.40829L25.5 5.40607C25.0439 5.14277 24.5266 5.00415 24 5.00415Z" fill="#F1F5F9" stroke="#F1F5F9" stroke-width="3" stroke-linecap="round" stroke-linejoin="round"/>
<path fill-rule="evenodd" clip-rule="evenodd" d="M5.67435 13.4194C5.9509 12.9413 6.56262 12.7779 7.04068 13.0545L24 22.8648L40.9592 13.0545C41.4373 12.7779 42.049 12.9413 42.3256 13.4194C42.6021 13.8974 42.4387 14.5092 41.9607 14.7857L24.5007 24.8857C24.1909 25.0649 23.809 25.0649 23.4992 24.8857L6.03924 14.7857C5.56118 14.5092 5.39781 13.8974 5.67435 13.4194Z" fill="#F1F5F9" stroke="#F1F5F9" stroke-width="3" stroke-linecap="round" stroke-linejoin="round"/>
<path fill-rule="evenodd" clip-rule="evenodd" d="M24 23C24.5523 23 25 23.4477 25 24V44.16C25 44.7123 24.5523 45.16 24 45.16C23.4477 45.16 23 44.7123 23 44.16V24C23 23.4477 23.4477 23 24 23Z" fill="#F1F5F9" stroke="#F1F5F9" stroke-width="3" stroke-linecap="round" stroke-linejoin="round"/>
</svg>
