<svg width="48" height="48" viewBox="0 0 48 48" fill="none" xmlns="http://www.w3.org/2000/svg">
<path fill-rule="evenodd" clip-rule="evenodd" d="M21.502 3.67283C22.2616 3.23473 23.1231 3.0041 24 3.0041C24.8769 3.0041 25.7383 3.23471 26.4979 3.67277C26.4986 3.67317 26.4993 3.67357 26.5 3.67398L40.5 11.674C41.2593 12.1124 41.89 12.7428 42.3288 13.5019C42.7676 14.261 42.9991 15.1222 43 15.999V32.001C42.9991 32.8778 42.7676 33.739 42.3288 34.4981C41.89 35.2572 41.2593 35.8876 40.5 36.326L40.4961 36.3282L26.5 44.326C26.4991 44.3265 26.4983 44.327 26.4974 44.3275C25.738 44.7654 24.8767 44.9959 24 44.9959C23.1233 44.9959 22.2619 44.7654 21.5025 44.3274C21.5016 44.327 21.5008 44.3265 21.5 44.326L7.50386 36.3282L7.5 36.326C6.74066 35.8876 6.10995 35.2572 5.67115 34.4981C5.23236 33.739 5.0009 32.8778 5 32.001V15.999C5.0009 15.1222 5.23236 14.261 5.67115 13.5019C6.10995 12.7428 6.74066 12.1124 7.5 11.674L7.50386 11.6718L21.5 3.67398C21.5007 3.67359 21.5013 3.67321 21.502 3.67283ZM24 5.0041C23.4734 5.0041 22.9561 5.14272 22.5 5.40603L22.4961 5.40825L8.5 13.406C8.49941 13.4064 8.49882 13.4067 8.49823 13.4071C8.04341 13.6701 7.66563 14.0479 7.40269 14.5028C7.13949 14.9581 7.00062 15.4746 7 16.0005V31.9995C7.00062 32.5254 7.13949 33.0419 7.40269 33.4972C7.66565 33.9522 8.04349 34.33 8.49837 34.593C8.49891 34.5933 8.49945 34.5937 8.5 34.594L22.5 42.594C22.9561 42.8573 23.4734 42.9959 24 42.9959C24.5266 42.9959 25.0439 42.8573 25.5 42.594L25.5039 42.5918L39.5 34.594C39.5005 34.5937 39.5011 34.5933 39.5016 34.593C39.9565 34.33 40.3343 33.9522 40.5973 33.4972C40.8606 33.0418 40.9995 32.5251 41 31.999V16.001C40.9995 15.4749 40.8606 14.9582 40.5973 14.5028C40.3344 14.0479 39.9566 13.6701 39.5018 13.4071C39.5012 13.4067 39.5006 13.4064 39.5 13.406L25.5039 5.40825L25.5 5.40603C25.0439 5.14272 24.5266 5.0041 24 5.0041Z" fill="#0F172A"/>
<path fill-rule="evenodd" clip-rule="evenodd" d="M5.67435 13.4193C5.9509 12.9412 6.56262 12.7778 7.04068 13.0544L24 22.8647L40.9592 13.0544C41.4373 12.7778 42.049 12.9412 42.3256 13.4193C42.6021 13.8973 42.4387 14.5091 41.9607 14.7856L24.5007 24.8856C24.1909 25.0648 23.809 25.0648 23.4992 24.8856L6.03924 14.7856C5.56118 14.5091 5.39781 13.8973 5.67435 13.4193Z" fill="#0F172A"/>
<path fill-rule="evenodd" clip-rule="evenodd" d="M24 23C24.5523 23 25 23.4477 25 24V44.16C25 44.7123 24.5523 45.16 24 45.16C23.4477 45.16 23 44.7123 23 44.16V24C23 23.4477 23.4477 23 24 23Z" fill="#0F172A"/>
</svg>
