<svg width="240" height="240" viewBox="0 0 240 240" fill="none" xmlns="http://www.w3.org/2000/svg">
<path d="M213.27 77.22C212.79 76.71 212.28 76.2 211.77 75.72C211.26 75.24 210.78 74.7 210.27 74.22C209.76 73.74 209.28 73.2 208.77 72.72C208.26 72.24 207.78 71.7 207.27 71.22C206.76 70.74 206.28 70.2 205.77 69.72C205.26 69.24 204.78 68.7 204.27 68.22C203.76 67.74 203.28 67.2 202.77 66.72C217.65 81.3441 226.175 101.239 226.5 122.1C226.5 171.81 176.04 212.25 114 212.25C79.2598 212.25 48.1798 199.56 27.5098 179.67L29.0098 181.17L30.5098 182.67L32.0098 184.17L33.5098 185.67L35.0098 187.17L36.5098 188.67L38.0098 190.17C58.6498 210.9 90.4198 224.25 126 224.25C188.04 224.25 238.5 183.81 238.5 134.25C238.5 113.07 229.38 93 213.27 77.22Z" fill="black"/>
<path d="M219 122.1C219 167.73 171.99 204.72 114 204.72C56.01 204.72 9 167.73 9 122.1C9 93.81 27 68.82 54.66 54C82.32 39.18 99.54 24 114 24C128.46 24 140.82 36.39 173.34 54C201 68.82 219 93.81 219 122.1Z" fill="#FBF0DF"/>
<path d="M219 122.1C218.985 116.238 218.178 110.405 216.6 104.76C208.41 204.66 86.5496 209.46 38.6396 179.58C60.1767 196.273 86.7539 205.139 114 204.72C171.9 204.72 219 167.67 219 122.1Z" fill="#F6DECE"/>
<path d="M73.59 48.51C87 40.47 104.82 25.38 122.34 25.35C119.645 24.4788 116.832 24.0236 114 24C106.74 24 99 27.75 89.25 33.39C85.86 35.37 82.35 37.56 78.63 39.84C71.64 44.16 63.63 49.05 54.63 53.94C26.07 69.39 9 94.86 9 122.1C9 123.3 9 124.5 9 125.67C27.18 61.44 60.21 56.55 73.59 48.51Z" fill="#FFFEFC"/>
<path fill-rule="evenodd" clip-rule="evenodd" d="M105.36 31.5901C105.402 38.6738 103.915 45.6831 101 52.1393C98.0853 58.5956 93.8115 64.3468 88.4704 69.0001C87.6304 69.7501 88.2904 71.1901 89.3704 70.7701C99.4804 66.8401 113.13 55.0801 107.37 31.3501C107.13 30.0001 105.36 30.3601 105.36 31.5901ZM112.17 31.5901C115.841 37.5794 118.173 44.2916 119.007 51.2666C119.841 58.2416 119.156 65.3144 117 72.0001C116.64 73.0501 117.93 73.9501 118.65 73.0801C125.22 64.6801 130.95 48.0001 113.79 30.0001C112.92 29.2201 111.57 30.4201 112.17 31.4701V31.5901ZM120.45 31.0801C126.199 35.1498 131.008 40.4048 134.553 46.4908C138.098 52.5768 140.296 59.3522 141 66.3601C140.97 66.6127 141.038 66.8672 141.19 67.0709C141.343 67.2747 141.567 67.412 141.818 67.4545C142.069 67.4969 142.326 67.4412 142.537 67.2989C142.748 67.1566 142.896 66.9386 142.95 66.6901C145.71 56.2201 144.15 38.3701 121.44 29.1001C120.24 28.6201 119.46 30.2401 120.45 30.9601V31.0801ZM65.0704 62.2801C71.9082 60.2373 78.2391 56.7773 83.6509 52.1253C89.0628 47.4733 93.4341 41.7337 96.4804 35.2801C97.0204 34.2001 98.7304 34.6201 98.4604 35.8201C93.2704 59.8201 75.9004 64.8301 65.1004 64.1701C63.9604 64.2001 63.9904 62.6101 65.0704 62.2801Z" fill="#CCBEA7"/>
<path d="M114 212.25C51.96 212.25 1.5 171.81 1.5 122.1C1.5 92.1 20.04 64.11 51.09 47.34C60.09 42.54 67.8 37.71 74.67 33.48C78.45 31.14 82.02 28.95 85.47 26.91C96 20.67 105 16.5 114 16.5C123 16.5 130.86 20.1 140.7 25.92C143.7 27.63 146.7 29.49 149.91 31.53C157.38 36.15 165.81 41.37 176.91 47.34C207.96 64.11 226.5 92.07 226.5 122.1C226.5 171.81 176.04 212.25 114 212.25ZM114 24C106.74 24 99 27.75 89.25 33.39C85.86 35.37 82.35 37.56 78.63 39.84C71.64 44.16 63.63 49.05 54.63 53.94C26.07 69.39 9 94.86 9 122.1C9 167.67 56.1 204.75 114 204.75C171.9 204.75 219 167.67 219 122.1C219 94.86 201.93 69.39 173.34 54C162 48 153.15 42.36 145.98 37.92C142.71 35.91 139.71 34.05 136.98 32.4C127.89 27 121.26 24 114 24Z" fill="black"/>
<path d="M135.15 144C133.802 149.52 130.734 154.468 126.39 158.13C123.128 161.292 118.906 163.276 114.39 163.77C109.738 163.355 105.368 161.365 102 158.13C97.6996 154.451 94.675 149.504 93.3598 144C93.3162 143.673 93.348 143.341 93.4527 143.028C93.5575 142.716 93.7323 142.431 93.964 142.197C94.1957 141.962 94.478 141.784 94.7892 141.675C95.1005 141.566 95.4325 141.53 95.7598 141.57H132.78C133.105 141.535 133.433 141.575 133.741 141.686C134.048 141.797 134.326 141.976 134.555 142.21C134.783 142.444 134.955 142.726 135.058 143.036C135.161 143.347 135.192 143.676 135.15 144Z" fill="#B71422"/>
<path d="M101.999 158.37C105.36 161.607 109.715 163.615 114.359 164.07C118.993 163.609 123.336 161.601 126.689 158.37C127.762 157.37 128.764 156.298 129.689 155.16C127.841 153.063 125.584 151.367 123.056 150.175C120.528 148.983 117.783 148.321 114.989 148.23C112 148.301 109.073 149.097 106.46 150.55C103.847 152.002 101.627 154.069 99.9893 156.57C100.679 157.2 101.279 157.8 101.999 158.37Z" fill="#FF6164"/>
<path d="M102.479 156C103.967 154.077 105.871 152.517 108.048 151.436C110.225 150.356 112.619 149.782 115.049 149.76C119.542 149.892 123.823 151.701 127.049 154.83C127.739 154.08 128.399 153.3 129.029 152.52C125.213 148.885 120.169 146.818 114.899 146.73C112.083 146.754 109.307 147.402 106.771 148.626C104.235 149.85 102.001 151.62 100.229 153.81C100.939 154.581 101.69 155.312 102.479 156Z" fill="black"/>
<path d="M114.27 165.57C109.271 165.132 104.566 163.018 100.92 159.57C96.2758 155.642 93.0072 150.335 91.5897 144.42C91.488 143.893 91.5053 143.351 91.6403 142.832C91.7752 142.313 92.0244 141.83 92.3697 141.42C92.7808 140.924 93.3 140.528 93.8875 140.262C94.475 139.997 95.1154 139.87 95.7597 139.89H132.78C133.423 139.876 134.061 140.007 134.648 140.272C135.234 140.536 135.754 140.929 136.17 141.42C136.512 141.832 136.757 142.315 136.886 142.835C137.016 143.354 137.028 143.896 136.92 144.42C135.502 150.335 132.233 155.642 127.59 159.57C123.951 163.011 119.258 165.125 114.27 165.57ZM95.7597 143.37C95.2797 143.37 95.1597 143.58 95.1297 143.64C96.3978 148.769 99.2664 153.361 103.32 156.75C106.284 159.67 110.137 161.518 114.27 162C118.392 161.523 122.241 159.699 125.22 156.81C129.26 153.415 132.118 148.824 133.38 143.7C133.314 143.604 133.224 143.528 133.118 143.48C133.012 143.433 132.895 143.415 132.78 143.43L95.7597 143.37Z" fill="black"/>
<path d="M159.659 145.86C169.352 145.86 177.209 141.24 177.209 135.54C177.209 129.84 169.352 125.22 159.659 125.22C149.967 125.22 142.109 129.84 142.109 135.54C142.109 141.24 149.967 145.86 159.659 145.86Z" fill="#FEBBD0"/>
<path d="M68.8498 145.86C78.5424 145.86 86.3998 141.24 86.3998 135.54C86.3998 129.84 78.5424 125.22 68.8498 125.22C59.1572 125.22 51.2998 129.84 51.2998 135.54C51.2998 141.24 59.1572 145.86 68.8498 145.86Z" fill="#FEBBD0"/>
<path fill-rule="evenodd" clip-rule="evenodd" d="M77.0996 131.4C80.3702 131.406 83.5691 130.442 86.2913 128.629C89.0136 126.816 91.137 124.237 92.3927 121.217C93.6484 118.197 93.9801 114.872 93.3456 111.664C92.7112 108.455 91.1393 105.507 88.8287 103.192C86.5181 100.877 83.5728 99.3002 80.3655 98.6599C77.1582 98.0197 73.833 98.3453 70.8108 99.5955C67.7886 100.846 65.2052 102.964 63.3875 105.683C61.5698 108.402 60.5996 111.599 60.5996 114.87C60.5996 119.249 62.337 123.449 65.4305 126.548C68.524 129.647 72.7208 131.392 77.0996 131.4ZM151.41 131.4C154.684 131.424 157.892 130.475 160.626 128.673C163.36 126.871 165.497 124.298 166.767 121.279C168.036 118.261 168.381 114.934 167.756 111.719C167.132 108.505 165.567 105.548 163.261 103.225C160.954 100.901 158.009 99.3146 154.799 98.667C151.589 98.0194 148.259 98.3397 145.232 99.5872C142.204 100.835 139.616 102.953 137.794 105.674C135.972 108.395 135 111.596 135 114.87C134.992 119.236 136.714 123.427 139.79 126.525C142.866 129.623 147.044 131.376 151.41 131.4Z" fill="black"/>
<path fill-rule="evenodd" clip-rule="evenodd" d="M71.9993 115.92C73.2288 115.926 74.4324 115.567 75.4576 114.888C76.4827 114.209 77.2833 113.242 77.758 112.108C78.2326 110.973 78.3599 109.724 78.1236 108.517C77.8874 107.311 77.2984 106.201 76.4311 105.33C75.5638 104.458 74.4574 103.864 73.2519 103.622C72.0465 103.38 70.7963 103.501 69.6599 103.97C68.5234 104.439 67.5517 105.235 66.868 106.257C66.1843 107.279 65.8194 108.481 65.8193 109.71C65.8193 111.352 66.4695 112.927 67.6276 114.091C68.7857 115.254 70.3575 115.912 71.9993 115.92ZM146.309 115.92C147.539 115.926 148.742 115.567 149.768 114.888C150.793 114.209 151.593 113.242 152.068 112.108C152.543 110.973 152.67 109.724 152.434 108.517C152.197 107.311 151.608 106.201 150.741 105.33C149.874 104.458 148.767 103.864 147.562 103.622C146.356 103.38 145.106 103.501 143.97 103.97C142.833 104.439 141.862 105.235 141.178 106.257C140.494 107.279 140.129 108.481 140.129 109.71C140.129 111.342 140.771 112.908 141.916 114.07C143.061 115.232 144.618 115.897 146.249 115.92H146.309Z" fill="white"/>
</svg>
