<svg width="241" height="240" viewBox="0 0 241 240" fill="none" xmlns="http://www.w3.org/2000/svg">
<path d="M218.406 76.7401C218.479 73.4706 217.65 70.2438 216.011 67.4101C214.292 64.6278 211.858 62.3522 208.962 60.8176C182.884 46.4776 156.793 32.1451 130.69 17.8201C127.543 15.9346 123.933 14.9534 120.26 14.9851C116.587 15.0169 112.995 16.0604 109.881 18.0001C99.503 23.8426 47.56 52.2376 32.0757 60.7951C29.1291 62.269 26.6693 64.5543 24.9886 67.3795C23.3078 70.2046 22.4766 73.4509 22.5939 76.7326V163.275C22.5178 166.471 23.2977 169.629 24.8533 172.425C26.5829 175.287 29.0681 177.622 32.0381 179.175C47.5223 187.733 99.4729 216.128 109.851 221.97C112.963 223.912 116.555 224.958 120.228 224.993C123.901 225.027 127.511 224.048 130.66 222.165C156.718 207.81 182.791 193.478 208.879 179.168C211.85 177.613 214.337 175.278 216.072 172.418C217.627 169.621 218.407 166.463 218.331 163.268V76.7401" fill="#659AD2"/>
<path d="M215.01 173.782C215.404 173.348 215.773 172.892 216.117 172.417C217.672 169.621 218.452 166.463 218.376 163.267V76.74C218.449 73.4705 217.62 70.2438 215.981 67.41C215.71 66.9675 215.311 66.6225 215.002 66.21L120.5 120L215.01 173.782Z" fill="#00599C"/>
<path d="M215.01 173.782L120.5 120L25.9902 173.782C27.5884 176.015 29.6708 177.861 32.083 179.183C47.5673 187.74 99.5178 216.135 109.896 221.977C113.008 223.919 116.6 224.966 120.273 225C123.945 225.034 127.556 224.056 130.705 222.172C156.763 207.817 182.836 193.485 208.924 179.175C211.334 177.856 213.414 176.012 215.01 173.782Z" fill="#004482"/>
<path d="M147.612 135.15C144.257 141.091 139.024 145.762 132.727 148.434C126.431 151.107 119.423 151.631 112.796 149.926C106.169 148.221 100.294 144.382 96.0848 139.007C91.8758 133.632 89.5692 127.021 89.5239 120.205C89.4787 113.389 91.6974 106.749 95.8348 101.319C99.9721 95.8888 105.796 91.9729 112.4 90.1809C119.004 88.3888 126.017 88.821 132.349 91.4103C138.681 93.9996 143.975 98.6007 147.409 104.498L174.634 88.95C167.724 77.1397 157.106 67.9197 144.415 62.7103C131.725 57.5008 117.667 56.591 104.407 60.1208C91.1464 63.6507 79.4192 71.4244 71.0317 82.2446C62.6442 93.0648 58.0618 106.331 57.9903 120C57.9767 130.839 60.8343 141.49 66.2747 150.878C71.7837 160.36 79.7027 168.23 89.2351 173.697C98.7676 179.165 109.578 182.036 120.578 182.024C131.579 182.011 142.382 179.114 151.901 173.624C161.421 168.134 169.321 160.245 174.808 150.75L147.612 135.15Z" fill="white"/>
<path d="M181.322 116.535H174.349V109.627H167.382V116.535H160.408V123.457H167.382V130.357H174.349V123.457H181.322V116.535Z" fill="white"/>
<path d="M207.478 116.535H200.505V109.627H193.531V116.535H186.557V123.457H193.531V130.357H200.505V123.457H207.478V116.535Z" fill="white"/>
</svg>
