<svg width="241" height="240" viewBox="0 0 241 240" fill="none" xmlns="http://www.w3.org/2000/svg">
<path fill-rule="evenodd" clip-rule="evenodd" d="M114.992 16.43C118.402 14.525 122.599 14.525 126.003 16.43C142.848 25.845 193.538 54.185 210.388 63.6C213.797 65.5 215.896 69.02 215.896 72.83C215.896 91.66 215.896 148.335 215.896 167.165C215.896 170.975 213.797 174.495 210.388 176.4C193.543 185.815 142.853 214.155 126.003 223.57C122.594 225.475 118.397 225.475 114.992 223.57C98.1476 214.155 47.4572 185.815 30.6073 176.4C27.2032 174.495 25.1045 170.98 25.1045 167.17C25.1045 148.34 25.1045 91.665 25.1045 72.835C25.1045 69.025 27.2032 65.505 30.6123 63.6C47.4522 54.185 98.1526 25.845 114.992 16.43Z" fill="#283593"/>
<path fill-rule="evenodd" clip-rule="evenodd" d="M26.6308 172.02C25.2953 170.24 25.1045 168.55 25.1045 166.275C25.1045 147.555 25.1045 91.2049 25.1045 72.4799C25.1045 68.6899 27.1982 65.1899 30.5973 63.2999C47.3819 53.9399 97.9015 25.7649 114.686 16.3999C118.085 14.5049 122.689 14.5449 126.089 16.4399C142.873 25.7999 193.222 53.7349 210.007 63.0949C211.362 63.8549 212.397 64.7699 213.32 65.9749L26.6308 172.02Z" fill="#5C6BC0"/>
<path fill-rule="evenodd" clip-rule="evenodd" d="M120.5 50C159.296 50 190.791 81.365 190.791 120C190.791 158.635 159.296 190 120.5 190C81.7037 190 50.208 158.635 50.208 120C50.208 81.365 81.7037 50 120.5 50ZM120.5 85C139.895 85 155.646 100.68 155.646 120C155.646 139.315 139.895 155 120.5 155C101.104 155 85.3538 139.315 85.3538 120C85.3538 100.68 101.099 85 120.5 85Z" fill="white"/>
<path fill-rule="evenodd" clip-rule="evenodd" d="M213.31 66.0249C215.9 68.4399 215.85 72.0799 215.85 74.9449C215.85 93.9199 215.69 147.89 215.895 166.865C215.915 168.845 215.258 170.93 214.274 172.5L118.456 120L213.31 66.0249Z" fill="#3949AB"/>
</svg>
    