<svg width="240" height="240" viewBox="0 0 240 240" fill="none" xmlns="http://www.w3.org/2000/svg">
<g clip-path="url(#clip0_592_76)">
<path d="M189.71 111.413L184.731 109.417C161.33 162.192 68.2371 130.108 62.6355 145.808C61.7018 156.412 113.473 147.824 150.485 149.622C161.771 150.169 167.431 158.709 162.639 172.628L172.078 172.657C182.967 138.633 217.719 155.997 219.171 144.768C216.785 137.385 179.232 144.768 189.71 111.413Z" fill="white"/>
<path d="M165.311 166.81C166.805 161.819 166.307 156.829 163.818 153.834C161.328 150.84 157.842 148.844 153.361 148.345L66.7219 147.346C66.2241 147.346 65.7263 146.847 65.2284 146.847C64.7306 146.348 64.7306 145.849 65.2284 145.35C65.7263 144.352 66.2241 143.852 67.2197 143.852L154.357 142.854C164.813 142.355 175.768 133.871 179.751 123.89L184.731 110.915C184.731 110.415 185.228 109.916 184.731 109.417C179.253 83.9643 156.349 64.9993 129.46 64.9993C104.564 64.9993 83.1534 80.9697 75.6844 103.428C70.7053 99.9347 64.7306 97.9379 57.7594 98.4378C45.8091 99.4357 36.3488 109.417 34.8544 121.395C34.3566 124.389 34.8544 127.384 35.3531 130.378C15.9337 130.877 0 146.847 0 166.81C0 168.806 0 170.304 0.497813 172.299C0.497813 173.298 1.49344 173.797 1.99219 173.797H161.826C162.821 173.797 163.818 173.298 163.818 172.299L165.311 166.81Z" fill="#F4811F"/>
<path d="M192.697 110.914H190.207C189.709 110.914 189.211 111.413 188.714 111.912L185.228 123.89C183.734 128.88 184.232 133.872 186.722 136.865C189.211 139.86 192.697 141.856 197.178 142.356L215.602 143.354C216.1 143.354 216.598 143.853 217.095 143.853C217.593 144.352 217.593 144.851 217.095 145.35C216.598 146.348 216.1 146.847 215.103 146.847L196.183 147.845C185.726 148.344 174.772 156.828 170.789 166.809L169.792 171.302C169.294 171.801 169.792 172.799 170.789 172.799H236.515C237.51 172.799 238.008 172.3 238.008 171.302C239.004 167.309 239.999 162.818 239.999 158.325C239.999 132.374 218.589 110.914 192.697 110.914Z" fill="#FAAD3F"/>
</g>
<defs>
<clipPath id="clip0_592_76">
<rect width="240" height="109" fill="white" transform="translate(0 65)"/>
</clipPath>
</defs>
</svg>
