<svg width="240" height="240" viewBox="0 0 240 240" fill="none" xmlns="http://www.w3.org/2000/svg">
<path d="M85.5674 224.2C94.8666 227.942 104.955 230.163 115.548 230.533C129.884 231.034 143.517 228.07 155.705 222.44C141.09 216.698 127.854 208.3 116.557 197.86C109.235 209.584 98.4042 218.845 85.5674 224.2Z" fill="#FF9100"/>
<path d="M116.556 197.864C90.7696 174.015 75.1264 139.497 76.4484 101.637C76.4916 100.408 76.5564 99.1789 76.6324 97.9505C72.014 96.7561 67.1924 96.0273 62.2308 95.8541C55.1288 95.6061 48.2508 96.4869 41.7576 98.3153C34.8739 110.373 30.7199 124.208 30.2024 139.028C28.8669 177.272 52.0112 210.689 85.566 224.203C98.4031 218.848 109.233 209.599 116.556 197.864Z" fill="#FFC400"/>
<path d="M116.556 197.863C122.552 188.268 126.186 177.02 126.61 164.902C127.723 133.024 106.293 105.601 76.6328 97.9492C76.5568 99.1776 76.492 100.406 76.4488 101.636C75.1268 139.496 90.77 174.014 116.556 197.863Z" fill="#FF9100"/>
<path d="M123.292 8.34326C106.4 21.8762 93.0606 39.7207 84.9898 60.2771C80.3694 72.0515 77.4658 84.6991 76.6182 97.9571C106.278 105.609 127.709 133.032 126.595 164.909C126.172 177.028 122.527 188.265 116.542 197.871C127.838 208.322 141.074 216.708 155.689 222.45C185.024 208.89 205.837 179.711 207.042 145.199C207.823 122.838 199.232 102.909 187.092 86.0875C174.272 68.2967 123.292 8.34326 123.292 8.34326Z" fill="#DD2C00"/>
</svg>
