<svg width="240" height="240" viewBox="0 0 240 240" fill="none" xmlns="http://www.w3.org/2000/svg">
<path fill-rule="evenodd" clip-rule="evenodd" d="M135.883 105.331C133.056 106.123 130.189 106.924 126.871 107.826C125.251 108.285 124.882 108.389 123.373 106.555C121.564 104.395 120.238 102.998 117.704 101.727C110.105 97.7879 102.747 98.9317 95.8717 103.633C87.6697 109.224 83.448 117.483 83.5687 127.775C83.6887 137.941 90.3232 146.327 99.8527 147.724C108.055 148.868 114.93 145.819 120.358 139.339C121.443 137.941 122.409 136.415 123.615 134.637H100.335C97.8015 134.637 97.1985 132.985 98.043 130.825C99.6112 126.886 102.506 120.279 104.194 116.975C104.557 116.212 105.401 114.942 107.21 114.942H146.026C147.77 109.122 150.599 103.623 154.373 98.4194C163.179 86.2207 173.794 79.8674 188.147 77.1997C200.451 74.9122 212.03 76.1827 222.524 83.6797C232.054 90.5415 237.964 99.8167 239.532 112.015C241.582 129.169 236.878 143.146 225.661 155.09C217.699 163.603 207.929 168.94 196.711 171.355C194.572 171.772 192.432 171.97 190.326 172.165C189.227 172.267 188.137 172.367 187.062 172.498C176.085 172.244 166.074 168.94 157.63 161.317C151.692 155.909 147.602 149.264 145.569 141.529C144.158 144.53 142.471 147.404 140.502 150.139C131.817 162.21 120.478 169.707 106.125 171.74C94.3035 173.392 83.3272 170.977 73.6774 163.354C64.7514 156.238 59.6853 146.835 58.3585 135.145C56.7904 121.295 60.6503 108.843 68.6113 97.9154C77.1757 86.0985 88.5142 78.6015 102.385 75.933C113.724 73.773 124.579 75.171 134.35 82.1595C140.743 86.6062 145.327 92.706 148.342 100.075C149.066 101.219 148.583 101.854 147.136 102.235C142.909 103.366 139.427 104.341 135.883 105.331ZM215.686 119.805C215.71 120.232 215.734 120.682 215.77 121.164C215.167 132.091 209.98 140.224 200.451 145.433C194.058 148.864 187.423 149.245 180.79 146.196C172.105 142.129 167.521 132.091 169.692 122.18C172.346 110.236 179.583 102.739 190.801 100.071C202.26 97.2757 213.237 104.391 215.408 116.971C215.578 117.871 215.629 118.77 215.686 119.805Z" fill="#00ACD7"/>
<path d="M18.3345 103.888C18.0932 104.269 18.2138 104.523 18.6963 104.523L54.6194 104.651C54.9813 104.651 55.5844 104.269 55.8257 103.888L57.8762 100.584C58.1174 100.203 57.9968 99.822 57.5144 99.822H22.1944C21.7119 99.822 21.1088 100.076 20.8676 100.457L18.3345 103.888Z" fill="#00ACD7"/>
<path d="M0.120622 115.577C-0.120622 115.958 5.58794e-08 116.212 0.482487 116.212L49.7946 116.086C50.2771 116.086 50.7595 115.831 50.8801 115.323L51.8452 112.273C51.9658 111.892 51.7245 111.511 51.242 111.511H3.98051C3.49803 111.511 2.89492 111.765 2.65367 112.147L0.120622 115.577Z" fill="#00ACD7"/>
<path d="M29.3111 127.141C29.0698 127.522 29.1904 127.903 29.673 127.903L48.2265 128.03C48.5883 128.03 49.0709 127.649 49.0709 127.141L49.3121 124.091C49.3121 123.583 49.0709 123.202 48.5883 123.202H32.206C31.7235 123.202 31.241 123.583 30.9998 123.964L29.3111 127.141Z" fill="#00ACD7"/>
</svg>
