<svg width="241" height="240" viewBox="0 0 241 240" fill="none" xmlns="http://www.w3.org/2000/svg">
<path d="M44.4491 204.008L27.5264 15H213.473L196.528 203.978L120.387 225L44.4491 204.008Z" fill="#E44F26"/>
<path d="M120.5 208.935L182.03 191.948L196.505 30.4575H120.5V208.935Z" fill="#F1662A"/>
<path d="M120.5 100.553H89.6972L87.5734 76.8151H120.5V53.6326H120.417H62.1328L62.6901 59.8576L68.4063 123.735H120.5V100.553Z" fill="#EBEBEB"/>
<path d="M120.5 160.755L120.394 160.785L94.4717 153.818L92.8148 135.33H80.215H69.4453L72.7063 171.72L120.394 184.905L120.5 184.875V160.755Z" fill="#EBEBEB"/>
<path d="M120.417 100.552V123.735H149.081L146.385 153.802L120.417 160.777V184.897L168.143 171.72L168.489 167.805L173.957 106.777L174.529 100.552H168.255H120.417Z" fill="white"/>
<path d="M120.417 53.6326V68.0326V76.7626V76.8151H176.57H176.645L177.112 71.6101L178.174 59.8576L178.731 53.6326H120.417Z" fill="white"/>
</svg>
