<svg width="241" height="240" viewBox="0 0 241 240" fill="none" xmlns="http://www.w3.org/2000/svg">
<g clip-path="url(#clip0_256_25)">
<path d="M0 0H241V240H0V0Z" fill="#F7DF1E"/>
<path d="M63.3676 200.562L81.8106 189.447C85.3686 195.729 88.6052 201.044 96.3689 201.044C103.811 201.044 108.503 198.145 108.503 186.869V110.183H131.151V187.188C131.151 210.548 117.401 221.181 97.3398 221.181C79.2223 221.181 68.7055 211.836 63.3672 200.56" fill="black"/>
<path d="M143.452 198.145L161.893 187.512C166.747 195.407 173.057 201.206 184.218 201.206C193.602 201.206 199.586 196.534 199.586 190.09C199.586 182.357 193.439 179.618 183.086 175.108L177.425 172.69C161.085 165.764 150.246 157.064 150.246 138.698C150.246 121.783 163.187 108.894 183.41 108.894C197.808 108.894 208.161 113.888 215.602 126.938L197.969 138.215C194.086 131.288 189.881 128.549 183.41 128.549C176.777 128.549 172.571 132.738 172.571 138.215C172.571 144.981 176.777 147.72 186.483 151.909L192.144 154.326C211.396 162.543 222.235 170.919 222.235 189.767C222.235 210.067 206.22 221.183 184.704 221.183C163.674 221.183 150.084 211.195 143.452 198.145Z" fill="black"/>
</g>
<defs>
<clipPath id="clip0_256_25">
<rect width="241" height="240" fill="white"/>
</clipPath>
</defs>
</svg>
