<svg width="240" height="240" viewBox="0 0 240 240" fill="none" xmlns="http://www.w3.org/2000/svg">
<path d="M120.372 63.3046C169.783 24.9455 144.424 0 144.424 0C148.198 39.6553 103.597 49.0187 91.6414 76.269C83.4836 94.8637 97.2281 111.145 120.356 131.665C118.311 127.12 115.158 122.704 111.966 118.234C101.076 102.985 89.7334 87.099 120.372 63.3046Z" fill="#E76F00"/>
<path d="M128.261 140.078C128.261 140.078 143.126 128.084 131.354 114.756C91.4484 69.539 175 49.0188 175 49.0188C123.988 73.5938 131.603 88.1806 144.425 105.902C158.153 124.904 128.261 140.078 128.261 140.078Z" fill="#E76F00"/>
<path d="M172.028 175.842C217.817 152.444 196.646 129.959 181.869 132.988C178.247 133.729 176.632 134.372 176.632 134.372C176.632 134.372 177.977 132.3 180.545 131.403C209.779 121.297 232.262 161.212 171.107 177.021C171.107 177.021 171.816 176.399 172.028 175.842Z" fill="#5382A1"/>
<path d="M76.747 146.227C48.0979 142.465 92.4558 132.104 92.4558 132.104C92.4558 132.104 75.2298 130.962 54.044 141.032C28.9928 152.949 116.01 158.368 161.055 146.719C165.738 143.574 172.21 140.848 172.21 140.848C172.21 140.848 153.777 144.085 135.42 145.609C112.959 147.459 88.8438 147.82 76.747 146.227Z" fill="#5382A1"/>
<path d="M87.6481 168.569C71.6719 166.944 82.1326 159.329 82.1326 159.329C40.7925 172.822 105.134 188.123 162.899 171.512C156.759 169.383 152.855 165.49 152.855 165.49C124.622 170.836 108.308 170.665 87.6481 168.569Z" fill="#5382A1"/>
<path d="M94.6089 192.743C78.6451 190.939 87.9714 185.605 87.9714 185.605C50.4447 195.916 110.797 217.219 158.575 197.083C150.749 194.09 145.146 190.636 145.146 190.636C123.833 194.602 113.948 194.913 94.6089 192.743Z" fill="#5382A1"/>
<path d="M194.54 205.041C194.54 205.041 201.442 210.633 186.939 214.959C159.361 223.174 72.157 225.655 47.9321 215.287C39.2238 211.561 55.5542 206.392 60.6911 205.306C66.0484 204.164 69.1099 204.377 69.1099 204.377C59.4255 197.668 6.51367 217.55 42.2333 223.244C139.646 238.779 219.808 216.248 194.54 205.041Z" fill="#5382A1"/>
<path d="M210 217.259C208.402 237.71 140.908 242.012 96.9558 239.246C68.2827 237.437 62.5362 232.919 62.4521 232.853C89.8946 237.302 136.162 238.112 173.676 231.169C206.928 225.012 210 217.259 210 217.259Z" fill="#5382A1"/>
</svg>
