<svg width="240" height="240" viewBox="0 0 240 240" fill="none" xmlns="http://www.w3.org/2000/svg">
<g clip-path="url(#clip0_590_48)">
<path d="M120 240C186.274 240 240 186.274 240 120C240 53.7258 186.274 0 120 0C53.7258 0 0 53.7258 0 120C0 186.274 53.7258 240 120 240Z" fill="#13AA52"/>
<path d="M152.076 105.337C144.497 71.8852 126.583 60.8859 124.655 56.6836C122.545 53.7188 120.408 48.4453 120.408 48.4453C120.373 48.3562 120.316 48.1992 120.251 48.0469C120.033 51.0117 119.92 52.1555 117.117 55.1461C112.776 58.5398 90.5061 77.2266 88.6944 115.233C87.0045 150.68 114.3 171.802 117.991 174.495L118.411 174.792V174.766C118.434 174.945 119.583 183.204 120.389 191.955H123.281C123.96 185.769 124.977 179.625 126.328 173.55L126.562 173.398C128.214 172.214 129.788 170.926 131.276 169.542L131.444 169.39C139.291 162.141 153.398 145.373 153.26 118.641C153.231 114.181 152.835 109.732 152.076 105.337ZM120.082 154.481C120.082 154.481 120.082 104.766 121.723 104.775C123.002 104.775 124.659 168.902 124.659 168.902C122.381 168.628 120.082 158.348 120.082 154.481Z" fill="white"/>
</g>
<defs>
<clipPath id="clip0_590_48">
<rect width="240" height="240" fill="white"/>
</clipPath>
</defs>
</svg>
