<svg width="240" height="240" viewBox="0 0 240 240" fill="none" xmlns="http://www.w3.org/2000/svg">
<path fill-rule="evenodd" clip-rule="evenodd" d="M138.66 15C137.218 15.0164 135.789 15.2698 134.43 15.75C146.512 23.685 132.33 35.205 138.93 45C138.468 41.7212 138.988 38.3792 140.424 35.3958C141.861 32.4124 144.149 29.9215 147 28.2375C149.137 26.46 150.502 25.8225 150.045 22.8825C149.325 18.0675 142.905 15 138.66 15ZM155.91 18.105C154.245 26.5275 152.16 26.835 145.987 32.2575C143.577 34.1536 141.876 36.806 141.158 39.7871C140.439 42.7681 140.746 45.9043 142.027 48.69C116.527 38.79 83.8422 32.805 59.8797 49.935C51.2622 56.0925 45.9972 64.935 35.3697 68.5425C28.4997 70.89 21.7497 70.2 17.4597 77.01C15.8852 78.9764 15.0628 81.4394 15.1397 83.9573C15.2167 86.4752 16.1881 88.8834 17.8797 90.75C19.1547 92.0625 21.6297 92.9025 22.6497 94.2375C23.2422 94.9875 23.2272 95.7375 23.7897 96.735C24.7814 99.0609 26.2184 101.171 28.0197 102.945C29.1147 103.852 32.9097 104.737 33.5547 105.705C34.3572 106.912 32.2572 111.705 34.0197 112.455C35.2122 113.003 38.6847 106.875 39.0222 106.335C38.3322 111.158 37.4247 119.715 42.8472 112.59C45.4197 109.208 45.5772 108.09 49.9047 107.34C58.4455 105.877 67.1968 106.201 75.6064 108.29C84.016 110.379 91.9012 114.189 98.7645 119.478C105.628 124.768 111.32 131.423 115.482 139.023C119.645 146.623 122.186 155.003 122.947 163.635C122.137 159.885 117.24 153.885 112.68 155.31C110.737 155.91 110.017 159.262 108.742 161.205C107.132 163.67 105.146 165.866 102.855 167.715C103.246 164.079 103.064 160.404 102.315 156.825C100.95 162.435 98.2122 171.742 91.3197 170.235C89.0236 169.884 86.8723 168.896 85.1112 167.381C83.3501 165.867 82.0501 163.888 81.3597 161.67C80.4672 155.97 86.4897 149.287 76.8072 148.815C57.3822 147.862 61.8747 176.43 73.3422 183.878C70.7067 184.169 68.1358 184.886 65.7297 186C73.0084 190.23 81.21 192.618 89.6216 192.957C98.0332 193.296 106.4 191.576 113.996 187.946C121.592 184.316 128.186 178.886 133.206 172.128C138.225 165.37 141.519 157.488 142.8 149.167C145.471 161.339 143.755 174.063 137.955 185.093C135.527 189.703 132.417 193.921 128.73 197.603C126.48 199.853 122.025 202.328 120.562 204.66C129.664 203.457 138.559 201.014 147 197.4C138.263 209.305 126.652 218.8 113.25 225C127.64 223.981 141.551 219.397 153.728 211.66C165.905 203.923 175.964 193.277 183 180.682C180.758 193.279 175.778 205.231 168.412 215.693C178.319 209.06 186.748 200.451 193.169 190.406C199.59 180.36 203.865 169.096 205.725 157.32C207.568 165.941 208.096 174.791 207.292 183.57C215.433 172.263 220.933 159.274 223.388 145.559C225.842 131.844 225.189 117.754 221.475 104.325C218.632 93.8868 214.37 83.8884 208.807 74.61C206.654 70.9944 204.298 67.5038 201.75 64.155C200.752 62.8575 195.42 58.11 195.42 56.655C195.375 56.8 195.337 56.8 195.307 56.655C195.307 81.15 169.057 96.4875 147.075 90.1275C155.584 89.4596 163.611 85.9086 169.83 80.0612C176.048 74.2138 180.085 66.42 181.275 57.9675C182.278 49.4202 180.304 40.7883 175.685 33.527C171.065 26.2657 164.077 20.8189 155.91 18.105Z" fill="url(#paint0_linear_260_104)"/>
<defs>
<linearGradient id="paint0_linear_260_104" x1="119.977" y1="225" x2="119.977" y2="15" gradientUnits="userSpaceOnUse">
<stop stop-color="#FFB199"/>
<stop offset="1" stop-color="#FF0844"/>
</linearGradient>
</defs>
</svg>
