<svg width="225" height="240" viewBox="0 0 225 240" fill="none" xmlns="http://www.w3.org/2000/svg">
<g clip-path="url(#clip0_256_7)">
<mask id="mask0_256_7" style="mask-type:luminance" maskUnits="userSpaceOnUse" x="0" y="0" width="225" height="240">
<path d="M225 0H0V240H225V0Z" fill="white"/>
</mask>
<g mask="url(#mask0_256_7)">
<path d="M112.5 230.625C169.778 230.625 216.211 181.096 216.211 120C216.211 58.9035 169.778 9.375 112.5 9.375C55.222 9.375 8.78906 58.9035 8.78906 120C8.78906 181.096 55.222 230.625 112.5 230.625Z" fill="black" stroke="black" stroke-linecap="round" stroke-linejoin="round"/>
<rect x="140.625" y="75" width="14.0625" height="90" fill="url(#paint0_linear_256_7)"/>
<path fill-rule="evenodd" clip-rule="evenodd" d="M84.3047 75.0131L66.7266 75V165H84.3047V104.52L173.834 220.614C178.762 217.189 183.423 213.363 187.777 209.179L84.3047 75.0131Z" fill="url(#paint1_linear_256_7)"/>
</g>
</g>
<defs>
<linearGradient id="paint0_linear_256_7" x1="147.656" y1="75" x2="147.656" y2="165" gradientUnits="userSpaceOnUse">
<stop offset="0.465" stop-color="white"/>
<stop offset="0.83"/>
</linearGradient>
<linearGradient id="paint1_linear_256_7" x1="139.746" y1="135.938" x2="194.563" y2="197.505" gradientUnits="userSpaceOnUse">
<stop stop-color="white"/>
<stop offset="1" stop-color="white" stop-opacity="0"/>
</linearGradient>
<clipPath id="clip0_256_7">
<rect width="225" height="240" fill="white"/>
</clipPath>
</defs>
</svg>
