<svg width="242" height="240" viewBox="0 0 242 240" fill="none" xmlns="http://www.w3.org/2000/svg">
<path d="M129.867 17.2404C124.499 14.2465 117.501 14.2599 112.128 17.2404C85.221 31.967 58.3131 46.6981 31.4007 61.418C26.1639 64.1501 22.6318 69.7274 22.6882 75.516V164.496C22.6504 170.398 26.3645 176.029 31.7364 178.724C39.4665 182.802 46.9767 187.295 54.8466 191.102C63.9372 195.532 75.3106 196.511 84.5124 191.891C91.9819 188.063 95.2996 179.546 95.2898 171.72C95.3503 142.355 95.2996 112.988 95.3132 83.622C95.4909 82.317 94.5025 80.922 93.0671 80.9535C89.6285 80.8995 86.1853 80.922 82.7466 80.9445C81.4474 80.823 80.1791 81.8933 80.2774 83.1885C80.2313 112.365 80.2865 141.551 80.2495 170.732C80.3243 174.768 77.5746 178.647 73.6522 180.011C64.5928 183.16 38.735 166.509 38.735 166.509C37.786 166.073 37.1834 165.053 37.2765 164.039C37.2765 134.682 37.2811 105.325 37.2765 75.9728C37.146 74.7893 37.8815 73.7235 38.9773 73.2404C65.7962 58.6005 92.6013 43.9241 119.42 29.2752C120.352 28.6586 121.65 28.6605 122.58 29.2797C149.399 43.9241 176.209 58.5871 203.032 73.2276C204.132 73.71 204.836 74.7938 204.724 75.9728C204.719 105.325 204.733 134.682 204.715 164.035C204.794 165.074 204.253 166.08 203.275 166.536C176.706 181.097 149.835 195.188 123.507 210.171C122.358 210.824 121.057 211.565 119.77 210.845C112.846 207.047 106.007 203.101 99.1058 199.266C98.3556 198.802 97.4004 198.602 96.6177 199.122C93.5239 200.739 90.6139 202.049 87.061 203.444C82.0713 205.403 82.8684 206.204 87.3688 208.804C95.4387 213.333 103.522 217.844 111.592 222.378C116.905 225.666 124.043 225.9 129.527 222.862C156.439 208.154 183.342 193.428 210.259 178.72C215.617 176.01 219.35 170.402 219.312 164.495V75.516C219.364 69.8448 215.967 64.367 210.888 61.5944C183.887 46.796 156.873 32.0298 129.867 17.2404Z" fill="#8CC84B"/>
<path d="M170.474 84.0465C159.911 78.4425 147.345 78.144 135.607 78.8767C127.128 79.7077 118.209 82.0282 112.031 88.0567C105.695 94.1167 104.315 103.903 107.325 111.814C109.482 117.404 114.911 121.039 120.526 122.962C127.758 125.494 135.353 126.277 142.951 127.06C149.882 127.774 156.814 128.489 163.475 130.531C166.196 131.425 169.365 132.793 170.198 135.73C170.968 139.207 170.124 143.248 167.278 145.664C158.236 152.761 133.085 151.674 124.151 146.088C120.539 143.708 118.983 139.495 118.35 135.481C118.279 134.23 117.264 133.082 115.894 133.177C112.465 133.137 109.035 133.146 105.605 133.173C104.409 133.073 103.165 133.918 103.099 135.129C102.394 153.517 119.423 161.533 135.399 163.298C144.526 164.16 153.853 164.11 162.842 162.168C169.598 160.642 176.372 157.833 181.023 152.672C186.759 146.4 187.886 137.062 185.314 129.249C183.348 123.419 177.728 119.68 171.984 117.756C164.172 115.099 154.914 113.671 147.838 113.003C137.554 112.032 125.333 112.429 122.422 105.727C121.261 102.217 122.249 97.86 125.501 95.7015C134.105 89.9137 151.616 90.6825 160.526 95.0062C164.617 97.038 166.988 101.211 167.967 105.424C168.148 106.661 168.988 107.953 170.432 107.899C173.838 107.966 177.244 107.917 180.65 107.921C181.82 108.002 183.101 107.347 183.329 106.159C183.185 97.3545 178.651 88.341 170.474 84.0465Z" fill="#8CC84B"/>
</svg>
