<svg width="240" height="240" viewBox="0 0 240 240" fill="none" xmlns="http://www.w3.org/2000/svg">
<path d="M220.415 148.95C219.5 144.805 215.74 139.97 208.155 139.97C206.605 139.97 204.91 140.165 202.98 140.565C199.44 141.295 196.425 141.65 193.77 141.77C214.435 106.57 227.85 57.675 214.565 40.7C197.06 18.335 173.495 14.995 161.01 14.995L159.835 15C155.19 15.075 150.37 15.645 145.52 16.695L127.605 20.565C125.165 20.26 122.68 20.045 120.09 20H119.94H119.86L119.1 19.995C111.135 19.995 103.87 21.685 97.3948 24.86L91.1398 22.395C82.5398 19.005 69.5997 14.97 56.7997 14.97C56.0797 14.97 55.3647 14.985 54.6447 15.01C42.0347 15.465 31.2047 20.25 23.3197 28.845C13.4797 39.575 8.99974 55.27 10.0147 75.5C10.0647 76.545 22.3047 180 56.9997 180H57.1247L57.4447 179.995C61.9497 179.885 66.2447 178.075 70.2597 174.61C73.3247 176.91 77.2898 178.27 80.9848 178.81C83.4248 179.385 87.8148 180.2 93.0748 180.2C99.4948 180.2 105.285 178.885 110.275 176.51C110.27 180.91 110.245 186.48 110.195 193.6L110.19 193.975L110.215 194.35C110.7 201.445 111.925 207.84 113.77 212.855C119.025 227.15 128.1 235.025 139.325 235.025C139.79 235.025 140.265 235.01 140.745 234.98C149.975 234.41 159.33 229.225 165.765 221.12C172.73 212.345 174.34 203.085 174.96 195.99L175 195.555V195.115V174.72L175.515 174.77L177.695 174.96L177.905 174.98L178.115 174.99C178.735 175.02 179.375 175.03 180.02 175.03C187.555 175.03 196.83 173.075 203.1 170.16C209.095 167.38 222.795 159.74 220.415 148.95Z" fill="white"/>
<path d="M165 170C165 168.975 165.06 168.12 165.09 167.175C165.04 165.92 165 165 165 165C165 165 165.06 164.955 165.16 164.89C165.905 151.525 169.59 146.375 173.535 143.44C172.985 142.675 172.35 141.85 171.755 141.065C170.09 138.88 168.015 136.17 165.795 132.695L165.385 131.905C165.05 131.085 164.24 129.67 163.21 127.81C157.295 117.11 144.985 94.8501 153.41 80.7901C157.1 74.6301 164.02 71.0801 174.015 70.2051C169.93 58.5901 154.625 30.5751 119.925 30.0001C119.915 30.0001 119.905 30.0001 119.895 30.0001C89.6902 29.5101 79.7652 56.9601 76.5352 73.3601C80.9852 71.4751 86.0652 70.3301 90.7152 70.3301C90.7852 70.3301 90.8602 70.3301 90.9302 70.3301C102.38 70.4151 110.255 76.5251 112.545 87.1001C114.22 94.8601 115.025 101.65 115.005 107.865C114.955 121.46 112.215 128.61 109.795 134.92L109.025 136.96C108.405 138.63 107.75 140.185 107.13 141.645C106.5 143.135 105.945 144.46 105.54 145.655C107.96 146.205 109.86 146.98 111.165 147.555L111.92 147.885C112.155 147.985 112.39 148.1 112.605 148.23C116.845 150.81 119.485 154.775 120.05 159.395C120.355 161.885 120.305 178.86 120.2 193.67C120.635 200.095 121.725 205.49 123.165 209.4C125.21 214.97 130.32 225.605 140.135 224.995C146.985 224.57 153.57 220.4 157.94 214.9C162.63 208.995 164.36 202.465 165.01 195.11V170H165Z" fill="#0277BD"/>
<path d="M75.5696 144.585C67.5046 136.17 63.5746 124.85 65.0496 114.305C66.4746 104.13 65.6696 94.17 65.2346 88.815C65.0896 87.03 64.9946 85.7 64.9996 84.965C64.9996 84.925 65.0096 84.89 65.0146 84.85C65.0146 84.83 65.0046 84.815 65.0046 84.795C65.6096 69.69 71.4346 45.86 87.4696 31.695C79.6596 28.62 66.9396 24.565 54.9996 25C36.2896 25.68 18.1796 38.62 19.9996 75C20.6846 88.65 36.1096 170.515 57.1996 170C60.2146 169.925 63.3446 167.99 66.5596 164.12C71.6446 158.005 76.5846 152.46 80.0996 148.6C78.5246 147.405 77.0046 146.085 75.5696 144.585ZM185.115 73.655C185.19 74.425 185.125 75.085 185.005 75.695C185.16 80.295 184.665 84.76 184.16 89.08C183.79 92.26 183.41 95.545 183.305 98.84C183.2 102.065 183.655 105.25 184.135 108.62C185.26 116.51 186.43 125.415 180.31 135.805C181.435 137.285 182.425 138.66 183.215 139.99C206.265 102.615 215.555 58.185 206.69 46.86C193.275 29.72 174.705 24.76 159.995 25C155.39 25.075 151.205 25.695 147.63 26.47C173.01 38.77 184.315 65.13 185.115 73.655ZM205 150.355C191.675 153.105 185.265 151.64 182.155 149.725C181.655 150.085 181.155 150.39 180.69 150.675C178.83 151.8 175.885 153.59 175.165 164.585C175.58 164.665 175.945 164.71 176.395 164.805L178.57 165C185.17 165.3 193.815 163.45 198.885 161.095C209.81 156.025 215.765 148.135 205 150.355ZM110.115 160.595C109.93 159.105 109.125 157.9 107.655 156.935L107.115 156.7C105.31 155.905 103.265 155 99.9996 155H99.9796C99.3446 155.05 98.7146 155.095 98.0796 155.095C97.8196 155.095 97.5646 155.06 97.3046 155.05C94.9346 156.875 91.5646 158.285 83.2246 160C68.3246 163.795 77.1196 168.275 82.8346 168.97C88.3646 170.355 101.51 172.04 110.24 164.925C110.215 162.685 110.175 161.145 110.115 160.595Z" fill="#0277BD"/>
<path d="M103.405 92.505C101.945 94.015 99.6403 95.3351 97.0953 94.9251C92.9553 94.2551 89.7803 89.26 90.0103 87.385C90.2303 85.515 93.7653 84.54 97.9003 85.21C99.3353 85.445 100.64 85.8501 101.74 86.3501C100.14 82.9101 97.2453 80.925 92.8303 80.44C85.0053 79.57 76.7003 83.66 75.0303 85.925C75.0653 86.475 75.1303 87.18 75.1953 88.01C75.6603 93.745 76.5203 104.43 74.9453 115.695C73.9053 123.12 76.9103 131.54 82.7803 137.67C86.5653 141.62 90.9853 144.12 95.3453 144.86C95.9003 142.47 96.8903 140.14 97.9103 137.735C98.4753 136.41 99.0753 135 99.6403 133.475L100.45 131.34C102.665 125.565 104.95 119.59 104.995 107.825C105.015 103.3 104.46 98.135 103.405 92.505ZM174.235 110.035C173.715 106.39 173.18 102.615 173.31 98.5201C173.425 94.8101 173.835 91.31 174.23 87.925C174.54 85.26 174.78 82.7 174.92 80.175C168.475 80.71 164.195 82.57 162.165 85.715C163.005 85.43 163.955 85.205 165.005 85.07C169.465 84.49 172.72 85.775 173.095 88.255C173.37 90.07 171.83 91.78 171.155 92.435C169.77 93.78 168.025 94.6451 166.25 94.8751C165.93 94.9151 165.605 94.935 165.29 94.935C163.525 94.935 161.84 94.33 160.545 93.435C161.105 103.3 168.38 116.495 171.96 122.97C172.725 124.355 173.315 125.46 173.805 126.41C175.77 120.815 175.045 115.715 174.235 110.035Z" fill="#0277BD"/>
</svg>
