<svg width="240" height="240" viewBox="0 0 240 240" fill="none" xmlns="http://www.w3.org/2000/svg">
<path d="M215.752 181.908L134.338 8.80474C133.326 6.6748 131.758 4.85831 129.8 3.54748C127.842 2.23665 125.566 1.48024 123.213 1.3583C120.856 1.20015 118.501 1.69207 116.404 2.78056C114.307 3.86904 112.548 5.51242 111.318 7.53197L23.0164 150.725C21.6738 152.887 20.9745 155.388 21.0007 157.933C21.0269 160.479 21.7774 162.965 23.1642 165.099L66.3353 232.035C67.9686 234.547 70.3694 236.464 73.1797 237.499C75.99 238.534 79.0591 238.631 81.9292 237.777L207.213 200.673C209.099 200.121 210.845 199.17 212.333 197.884C213.821 196.598 215.015 195.007 215.836 193.219C216.645 191.44 217.057 189.507 217.044 187.552C217.03 185.598 216.592 183.67 215.758 181.902L215.752 181.908ZM197.525 189.333L91.2145 220.807C87.9714 221.773 84.8584 218.958 85.5331 215.681L123.515 33.596C124.225 30.1895 128.924 29.6497 130.41 32.8025L200.721 182.293C201.031 182.959 201.194 183.685 201.198 184.42C201.201 185.155 201.046 185.883 200.741 186.552C200.437 187.221 199.991 187.816 199.435 188.296C198.879 188.776 198.225 189.129 197.519 189.332L197.525 189.333Z" fill="#0C344B"/>
</svg>
