<svg width="241" height="240" viewBox="0 0 241 240" fill="none" xmlns="http://www.w3.org/2000/svg">
<path fill-rule="evenodd" clip-rule="evenodd" d="M98.0298 15C81.4829 15 68.0693 27.934 68.0693 43.8889V63.8889H119.924V69.4445H45.0229C28.4762 69.4445 15.0625 82.3785 15.0625 98.3333V141.667C15.0625 157.622 28.4762 170.555 45.0229 170.555H62.3077V146.111C62.3077 130.157 75.7214 117.222 92.2684 117.222H147.579C161.581 117.222 172.93 106.278 172.93 92.778V43.8889C172.93 27.934 159.517 15 142.97 15H98.0298ZM91.1161 50.5555C96.8436 50.5555 101.487 46.0784 101.487 40.5556C101.487 35.0327 96.8436 30.5555 91.1161 30.5555C85.3878 30.5555 80.7448 35.0327 80.7448 40.5556C80.7448 46.0784 85.3878 50.5555 91.1161 50.5555Z" fill="url(#paint0_linear_257_35)"/>
<path fill-rule="evenodd" clip-rule="evenodd" d="M142.969 225C159.516 225 172.93 212.066 172.93 196.111V176.111H121.075V170.556H195.976C212.523 170.556 225.936 157.621 225.936 141.667V98.3332C225.936 82.3785 212.523 69.4446 195.976 69.4446H178.691V93.8887C178.691 109.844 165.277 122.778 148.731 122.778H93.4194C79.418 122.778 68.0684 133.722 68.0684 147.222V196.111C68.0684 212.066 81.4823 225 98.0285 225H142.969ZM149.883 189.445C144.155 189.445 139.512 193.921 139.512 199.444C139.512 204.967 144.155 209.444 149.883 209.444C155.611 209.444 160.254 204.967 160.254 199.444C160.254 193.921 155.611 189.445 149.883 189.445Z" fill="url(#paint1_linear_257_35)"/>
<defs>
<linearGradient id="paint0_linear_257_35" x1="93.9968" y1="15" x2="93.9968" y2="170.555" gradientUnits="userSpaceOnUse">
<stop stop-color="#327EBD"/>
<stop offset="1" stop-color="#1565A7"/>
</linearGradient>
<linearGradient id="paint1_linear_257_35" x1="147.003" y1="69.4446" x2="147.003" y2="225" gradientUnits="userSpaceOnUse">
<stop stop-color="#FFDA4B"/>
<stop offset="1" stop-color="#F9C600"/>
</linearGradient>
</defs>
</svg>
