<svg width="211" height="240" viewBox="0 0 211 240" fill="none" xmlns="http://www.w3.org/2000/svg">
<path d="M211 120.022C211 106.069 193.496 92.8457 166.658 84.6457C172.851 57.341 170.099 35.6174 157.97 28.6624C155.175 27.031 151.906 26.2583 148.337 26.2583V35.8321C150.315 35.8321 151.906 36.2185 153.24 36.9483C159.089 40.297 161.626 53.0478 159.648 69.4478C159.175 73.4834 158.401 77.7336 157.454 82.0698C149.025 80.009 139.821 78.4205 130.144 77.3902C124.338 69.4478 118.317 62.2352 112.252 55.9242C126.273 42.9158 139.434 35.7892 148.38 35.7892V26.2153C136.552 26.2153 121.069 34.63 105.414 49.2268C89.7589 34.7159 74.2758 26.3871 62.4484 26.3871V35.9609C71.3512 35.9609 84.5548 43.0446 98.5756 55.9671C92.5544 62.2781 86.5332 69.4478 80.8131 77.3902C71.0932 78.4205 61.8893 80.009 53.4596 82.1127C52.4704 77.8195 51.7393 73.6551 51.2232 69.6624C49.2018 53.2624 51.6963 40.5117 57.5024 37.12C58.7927 36.3473 60.47 36.0038 62.4484 36.0038V26.43C58.8357 26.43 55.5671 27.2028 52.7285 28.8342C40.6431 35.7891 37.9336 57.4698 44.1698 84.6886C17.4185 92.9315 0 106.112 0 120.022C0 133.974 17.5045 147.197 44.3418 155.397C38.1486 182.702 40.9011 204.426 53.0296 211.381C55.8251 213.012 59.0938 213.785 62.7065 213.785C74.5338 213.785 90.0169 205.37 105.672 190.773C121.327 205.284 136.81 213.613 148.638 213.613C152.25 213.613 155.519 212.84 158.358 211.209C170.443 204.254 173.152 182.573 166.916 155.355C193.582 147.155 211 133.932 211 120.022ZM155.003 91.386C153.412 96.9242 151.433 102.634 149.197 108.344C147.433 104.91 145.584 101.475 143.563 98.0404C141.584 94.6059 139.477 91.2572 137.369 87.9944C143.477 88.8959 149.369 90.0122 155.003 91.386ZM135.305 137.108C131.95 142.904 128.51 148.4 124.94 153.508C118.532 154.067 112.037 154.367 105.5 154.367C99.0057 154.367 92.5114 154.067 86.1462 153.551C82.5764 148.442 79.0927 142.99 75.7381 137.237C72.4694 131.613 69.5018 125.903 66.7923 120.15C69.4588 114.397 72.4694 108.645 75.6951 103.021C79.0497 97.2247 82.4904 91.7294 86.0601 86.6205C92.4684 86.0624 98.9627 85.7619 105.5 85.7619C111.994 85.7619 118.489 86.0624 124.854 86.5776C128.424 91.6865 131.907 97.1389 135.262 102.892C138.531 108.516 141.498 114.226 144.208 119.979C141.498 125.732 138.531 131.484 135.305 137.108ZM149.197 131.527C151.519 137.28 153.498 143.033 155.132 148.614C149.498 149.988 143.563 151.147 137.412 152.049C139.52 148.743 141.627 145.351 143.606 141.874C145.584 138.439 147.433 134.962 149.197 131.527ZM105.586 177.336C101.586 173.214 97.5864 168.62 93.6296 163.597C97.5004 163.769 101.457 163.898 105.457 163.898C109.5 163.898 113.5 163.812 117.413 163.597C113.543 168.62 109.543 173.214 105.586 177.336ZM73.5876 152.049C67.4804 151.147 61.5883 150.031 55.9541 148.657C57.5455 143.119 59.5238 137.409 61.7603 131.699C63.5236 135.134 65.373 138.568 67.3944 142.003C69.4158 145.437 71.4802 148.786 73.5876 152.049ZM105.371 62.7075C109.371 66.8289 113.371 71.4226 117.327 76.4457C113.457 76.2739 109.5 76.1451 105.5 76.1451C101.457 76.1451 97.4574 76.231 93.5436 76.4457C97.4144 71.4226 101.414 66.8289 105.371 62.7075ZM73.5446 87.9944C71.4372 91.3001 69.3298 94.6917 67.3514 98.1692C65.373 101.604 63.5236 105.038 61.7603 108.473C59.4378 102.72 57.4594 96.9671 55.8251 91.386C61.4592 90.0551 67.3944 88.8959 73.5446 87.9944ZM34.6219 141.745C19.3969 135.262 9.5479 126.762 9.5479 120.022C9.5479 113.281 19.3969 104.738 34.6219 98.298C38.3206 96.7095 42.3634 95.2928 46.5353 93.9619C48.9868 102.377 52.2124 111.135 56.2122 120.107C52.2554 129.037 49.0728 137.752 46.6643 146.124C42.4064 144.793 38.3636 143.334 34.6219 141.745ZM57.7605 203.095C51.9113 199.746 49.3738 186.995 51.3522 170.595C51.8253 166.56 52.5995 162.309 53.5457 157.973C61.9753 160.034 71.1792 161.623 80.8561 162.653C86.6623 170.595 92.6834 177.808 98.7477 184.119C84.7269 197.127 71.5662 204.254 62.6205 204.254C60.6851 204.211 59.0508 203.825 57.7605 203.095ZM159.777 170.381C161.798 186.781 159.304 199.531 153.498 202.923C152.207 203.696 150.53 204.039 148.552 204.039C139.649 204.039 126.445 196.956 112.424 184.033C118.446 177.722 124.467 170.552 130.187 162.61C139.907 161.58 149.111 159.991 157.54 157.888C158.53 162.224 159.304 166.388 159.777 170.381ZM176.335 141.745C172.636 143.334 168.594 144.75 164.422 146.081C161.97 137.667 158.745 128.908 154.745 119.936C158.702 111.006 161.884 102.291 164.293 93.919C168.551 95.2498 172.593 96.7095 176.378 98.298C191.603 104.781 201.452 113.281 201.452 120.022C201.409 126.762 191.56 135.305 176.335 141.745Z" fill="#61DAFB"/>
<path d="M105.457 139.641C116.312 139.641 125.112 130.857 125.112 120.021C125.112 109.186 116.312 100.402 105.457 100.402C94.6016 100.402 85.8018 109.186 85.8018 120.021C85.8018 130.857 94.6016 139.641 105.457 139.641Z" fill="#61DAFB"/>
</svg>
