<svg width="240" height="240" viewBox="0 0 240 240" fill="none" xmlns="http://www.w3.org/2000/svg">
<g clip-path="url(#clip0_589_11)">
<path d="M191.905 120C191.905 126.629 189.225 132.629 184.887 136.968C180.549 141.312 174.556 144 167.937 144C161.317 144 155.325 146.683 150.991 151.027C146.653 155.371 143.968 161.371 143.968 168C143.968 174.629 141.289 180.629 136.951 184.968C132.612 189.312 126.62 192 120 192C113.38 192 107.388 189.312 103.055 184.968C98.7165 180.629 96.0322 174.629 96.0322 168C96.0322 161.371 98.7165 155.371 103.055 151.027C107.388 146.683 113.38 144 120 144C126.62 144 132.612 141.312 136.951 136.968C141.289 132.629 143.968 126.629 143.968 120C143.968 106.742 133.24 96 120 96C113.38 96 107.388 93.312 103.055 88.968C98.7165 84.6288 96.0322 78.6288 96.0322 72C96.0322 65.3712 98.7165 59.3712 103.055 55.0272C107.388 50.6832 113.38 48 120 48C133.24 48 143.968 58.7424 143.968 72C143.968 78.6288 146.653 84.6288 150.991 88.968C155.325 93.312 161.317 96 167.937 96C181.176 96 191.905 106.742 191.905 120Z" fill="#F44250"/>
<path d="M96.0319 120C96.0319 106.745 85.3013 96 72.0638 96C58.8267 96 48.0957 106.745 48.0957 120C48.0957 133.255 58.8267 144 72.0638 144C85.3013 144 96.0319 133.255 96.0319 120Z" fill="#121212"/>
<path d="M48.0954 168C48.0954 154.745 37.3645 144 24.1273 144C10.8901 144 0.15918 154.745 0.15918 168C0.15918 181.255 10.8901 192 24.1273 192C37.3645 192 48.0954 181.255 48.0954 168Z" fill="#121212"/>
<path d="M239.841 168C239.841 154.745 229.109 144 215.872 144C202.635 144 191.904 154.745 191.904 168C191.904 181.255 202.635 192 215.872 192C229.109 192 239.841 181.255 239.841 168Z" fill="#121212"/>
</g>
<defs>
<clipPath id="clip0_589_11">
<rect width="240" height="144" fill="white" transform="translate(0 48)"/>
</clipPath>
</defs>
</svg>
