<svg width="240" height="240" viewBox="0 0 240 240" fill="none" xmlns="http://www.w3.org/2000/svg">
<g clip-path="url(#clip0_590_47)">
<path fill-rule="evenodd" clip-rule="evenodd" d="M215.841 184.693C218 212.364 218 225.335 218 239.494H153.856C153.856 236.41 153.912 233.588 153.967 230.728C154.141 221.834 154.322 212.561 152.878 193.832C150.97 166.414 139.141 160.321 117.39 160.321H98.1198H16.5068V110.435H120.443C147.918 110.435 161.655 102.093 161.655 80.0056C161.655 60.5843 147.918 48.8151 120.443 48.8151H16.5068V0H131.891C194.09 0 225 29.3224 225 76.162C225 111.196 203.249 134.045 173.866 137.853C198.67 142.804 213.17 156.894 215.841 184.693Z" fill="white"/>
<path d="M16.5068 239.494V202.305H84.3289C95.6575 202.305 98.1173 210.692 98.1173 215.693V239.494H16.5068Z" fill="white"/>
<path d="M16.5075 202.052H16.2539V202.305V239.494V239.747H16.5075H98.118H98.3716V239.494V215.693C98.3716 213.159 97.7497 209.752 95.6754 206.972C93.5915 204.18 90.0654 202.052 84.3296 202.052H16.5075Z" stroke="white" stroke-opacity="0.8"/>
</g>
<defs>
<clipPath id="clip0_590_47">
<rect width="209" height="240" fill="white" transform="translate(16)"/>
</clipPath>
</defs>
</svg>
