<svg width="240" height="240" viewBox="0 0 240 240" fill="none" xmlns="http://www.w3.org/2000/svg">
<path d="M67.5 102.75C74.5 74.75 92 60.75 120 60.75C162 60.75 167.25 92.25 188.25 97.5C202.25 101 214.5 95.75 225 81.75C218 109.75 200.5 123.75 172.5 123.75C130.5 123.75 125.25 92.25 104.25 87C90.25 83.5 78 88.75 67.5 102.75ZM15 165.75C22 137.75 39.5 123.75 67.5 123.75C109.5 123.75 114.75 155.25 135.75 160.5C149.75 164 162 158.75 172.5 144.75C165.5 172.75 148 186.75 120 186.75C78 186.75 72.75 155.25 51.75 150C37.75 146.5 25.5 151.75 15 165.75Z" fill="#44A8B3"/>
</svg>
