<svg width="241" height="240" viewBox="0 0 241 240" fill="none" xmlns="http://www.w3.org/2000/svg">
<g clip-path="url(#clip0_256_30)">
<path d="M0 120V240H120.5H241V120V0H120.5H0V120Z" fill="#007ACC"/>
<path d="M53.2943 120.796L53.2178 130.625H68.9019H84.586L84.586 175.006V219.386H95.6797H106.773V175.006L106.773 130.625H122.457H138.142V120.986C138.142 115.653 138.027 111.196 137.874 111.082C137.759 110.929 118.67 110.853 95.5267 110.891L53.4091 111.006L53.2943 120.796Z" fill="white"/>
<path d="M194.463 110.727C200.583 112.25 205.25 114.955 209.535 119.374C211.754 121.736 215.043 126.041 215.311 127.069C215.388 127.374 204.906 134.384 198.556 138.307C198.326 138.46 197.408 137.469 196.376 135.946C193.277 131.45 190.025 129.507 185.052 129.165C177.746 128.669 173.041 132.479 173.079 138.841C173.079 140.707 173.347 141.812 174.112 143.336C175.718 146.65 178.702 148.631 188.074 152.669C205.327 160.06 212.71 164.936 217.3 171.869C222.426 179.603 223.574 191.946 220.093 201.127C216.268 211.107 206.781 217.888 193.43 220.136C189.299 220.86 179.506 220.746 175.068 219.946C165.39 218.231 156.209 213.469 150.547 207.222C148.329 204.784 144.006 198.422 144.274 197.965C144.388 197.812 145.383 197.203 146.492 196.555C147.563 195.946 151.618 193.622 155.444 191.412L162.368 187.412L163.821 189.546C165.849 192.631 170.286 196.86 172.964 198.269C180.653 202.307 191.211 201.736 196.414 197.088C198.632 195.069 199.551 192.974 199.551 189.888C199.551 187.107 199.206 185.888 197.753 183.793C195.878 181.127 192.053 178.879 181.189 174.193C168.756 168.86 163.401 165.546 158.504 160.288C155.673 157.241 152.996 152.365 151.886 148.288C150.968 144.898 150.739 136.403 151.465 132.974C154.028 121.012 163.095 112.669 176.177 110.193C180.424 109.393 190.293 109.698 194.463 110.727Z" fill="white"/>
</g>
<defs>
<clipPath id="clip0_256_30">
<rect width="241" height="240" fill="white"/>
</clipPath>
</defs>
</svg>
