<svg width="240" height="240" viewBox="0 0 240 240" fill="none" xmlns="http://www.w3.org/2000/svg">
<path d="M200 120C200 164 164 200 120 200C76 200 40 164 40 120C40 76 76 40 120 40C164 40 200 76 200 120Z" fill="white"/>
<path d="M150 120C150 136.5 136.5 150 120 150C103.5 150 90 136.5 90 120C90 103.5 103.5 90 120 90C136.5 90 150 103.5 150 120ZM60 107.5C67 107.5 72.5 113 72.5 120C72.5 127 67 132.5 60 132.5C53 132.5 47.5 127 47.5 120C47.5 113 53 107.5 60 107.5ZM60 102.5C50.5 102.5 42.5 110.5 42.5 120C42.5 129.5 50.5 137.5 60 137.5C69.5 137.5 77.5 129.5 77.5 120C77.5 110.5 69.5 102.5 60 102.5ZM150 157.5C157 157.5 162.5 163 162.5 170C162.5 177 157 182.5 150 182.5C143 182.5 137.5 177 137.5 170C137.5 163 143 157.5 150 157.5ZM150 152.5C140.5 152.5 132.5 160.5 132.5 170C132.5 179.5 140.5 187.5 150 187.5C159.5 187.5 167.5 179.5 167.5 170C167.5 160.5 159.5 152.5 150 152.5Z" fill="#E64A19"/>
<path d="M120 20C65 20 20 65 20 120C20 175 65 220 120 220C175 220 220 175 220 120C220 65 175 20 120 20ZM162.5 170C162.5 177 157 182.5 150 182.5C143 182.5 137.5 177 137.5 170C137.5 169 137.5 167.5 138 166.5C132.5 169 126.5 170 120 170C94.5 170 74 151 70.5 126.5C68.5 130 64.5 132.5 60 132.5C53 132.5 47.5 127 47.5 120C47.5 113 53 107.5 60 107.5C64.5 107.5 68.5 110 70.5 113.5C74 89 94.5 70 120 70C126.5 70 132.5 71 138 73.5C137.5 72.5 137.5 71.5 137.5 70C137.5 63 143 57.5 150 57.5C157 57.5 162.5 63 162.5 70C162.5 76 158.5 81 152.5 82C163.5 91.5 170 105 170 120C170 135 163.5 148.5 152.5 158C158.5 159 162.5 164 162.5 170Z" fill="#E64A19"/>
<path d="M150 57.5C157 57.5 162.5 63 162.5 70C162.5 77 157 82.5 150 82.5C143 82.5 137.5 77 137.5 70C137.5 63 143 57.5 150 57.5ZM150 52.5C140.5 52.5 132.5 60.5 132.5 70C132.5 79.5 140.5 87.5 150 87.5C159.5 87.5 167.5 79.5 167.5 70C167.5 60.5 159.5 52.5 150 52.5ZM120 120C107 99.5 94 79.5 81 59Z" fill="#E64A19"/>
<path d="M76.9473 61.8918L85.3843 56.5237L124.035 117.27L115.598 122.638L76.9473 61.8918Z" fill="#E64A19"/>
<path d="M120 115H192V125H120V115Z" fill="#E64A19"/>
<path d="M120 120C106.5 140 93.5 160 80 180Z" fill="#E64A19"/>
<path d="M75.8418 177.186L115.778 117.277L124.099 122.824L84.1625 182.733L75.8418 177.186Z" fill="#E64A19"/>
</svg>
