<svg width="240" height="240" viewBox="0 0 240 240" fill="none" xmlns="http://www.w3.org/2000/svg">
<path d="M224.127 46.095L125.563 222.343C123.528 225.981 118.3 226.003 116.234 222.382L15.7167 46.1115C13.4667 42.165 16.8402 37.3852 21.3117 38.184L119.982 55.821C120.611 55.9335 121.255 55.9325 121.884 55.818L218.49 38.2095C222.947 37.3972 226.338 42.141 224.127 46.095Z" fill="url(#paint0_linear_257_38)"/>
<path d="M166.983 15.0518L94.0431 29.3438C93.4602 29.4578 92.9318 29.7624 92.5409 30.2097C92.15 30.6569 91.9189 31.2214 91.8839 31.8143L87.3974 107.593C87.2924 109.378 88.9311 110.763 90.6726 110.361L110.98 105.675C112.881 105.236 114.598 106.91 114.207 108.821L108.174 138.365C107.767 140.353 109.634 142.054 111.576 141.464L124.119 137.653C126.064 137.063 127.932 138.768 127.521 140.758L117.933 187.166C117.333 190.068 121.194 191.651 122.804 189.162L123.88 187.5L183.315 68.886C184.31 66.9 182.595 64.6358 180.412 65.0565L159.51 69.0908C157.545 69.4695 155.874 67.6403 156.428 65.718L170.071 18.423C170.626 16.497 168.949 14.6663 166.983 15.0518Z" fill="url(#paint1_linear_257_38)"/>
<defs>
<linearGradient id="paint0_linear_257_38" x1="13.2622" y1="31.8844" x2="135.926" y2="198.472" gradientUnits="userSpaceOnUse">
<stop stop-color="#41D1FF"/>
<stop offset="1" stop-color="#BD34FE"/>
</linearGradient>
<linearGradient id="paint1_linear_257_38" x1="114.313" y1="18.9315" x2="136.502" y2="171.148" gradientUnits="userSpaceOnUse">
<stop stop-color="#FFEA83"/>
<stop offset="0.0833" stop-color="#FFDD35"/>
<stop offset="1" stop-color="#FFA800"/>
</linearGradient>
</defs>
</svg>
