<svg width="48" height="48" viewBox="0 0 48 48" fill="none" xmlns="http://www.w3.org/2000/svg">
<path fill-rule="evenodd" clip-rule="evenodd" d="M25.0336 4.52712C25.6141 5.55727 25.5354 6.83236 24.8325 7.78327C23.2665 9.90198 22.5129 12.5124 22.7088 15.1398C22.9047 17.7672 24.0372 20.2369 25.9002 22.0999C27.7632 23.9629 30.2329 25.0954 32.8603 25.2913C35.4877 25.4872 38.0981 24.7336 40.2168 23.1676C41.1677 22.4647 42.4428 22.386 43.473 22.9665C44.5031 23.5471 45.0961 24.6786 44.9873 25.8561C44.6203 29.8279 43.1297 33.6131 40.6899 36.7686C38.2501 39.9242 34.9621 42.3196 31.2106 43.6747C27.4591 45.0298 23.3993 45.2884 19.5062 44.4203C15.613 43.5522 12.0476 41.5934 9.22718 38.7729C6.40672 35.9525 4.44784 32.3871 3.57977 28.4939C2.71169 24.6008 2.97032 20.541 4.32539 16.7895C5.68046 13.038 8.07592 9.74997 11.2315 7.3102C14.387 4.87044 18.1722 3.37983 22.144 3.01278C23.3215 2.90397 24.453 3.49697 25.0336 4.52712ZM17.0782 10.6562C16.3168 11.0578 15.5883 11.5259 14.9015 12.0569C12.6475 13.7996 10.9364 16.1482 9.96854 18.8278C9.00064 21.5075 8.8159 24.4073 9.43596 27.1882C10.056 29.969 11.4552 32.5157 13.4698 34.5303C15.4844 36.5449 18.0311 37.9441 20.8119 38.5641C23.5928 39.1842 26.4926 38.9995 29.1723 38.0316C31.8519 37.0636 34.2005 35.3526 35.9432 33.0986C36.4742 32.4118 36.9423 31.6833 37.3439 30.9219C35.7387 31.2763 34.0786 31.3988 32.4141 31.2747C28.3536 30.9719 24.5367 29.2217 21.6575 26.3426C18.7784 23.4634 17.0282 19.6465 16.7254 15.586C16.6013 13.9215 16.7238 12.2614 17.0782 10.6562Z" fill="#0F172A"/>
</svg>
